<mxfile host="app.diagrams.net" modified="2021-02-23T12:31:43.893Z" agent="5.0 (Windows NT 10.0; Win64; x64) AppleWebKit/537.36 (KHTML, like Gecko) Chrome/88.0.4324.182 Safari/537.36" etag="vANmz4v8Ecf92mDatXm9" version="14.4.2" type="github">
  <diagram id="sahSBgh8zaKbjRusDvZ8" name="Page-1">
    <mxGraphModel dx="2272" dy="706" grid="1" gridSize="10" guides="1" tooltips="1" connect="1" arrows="1" fold="1" page="1" pageScale="1" pageWidth="850" pageHeight="1100" math="0" shadow="0">
      <root>
        <mxCell id="0" />
        <mxCell id="1" parent="0" />
        <mxCell id="qKksl_JtNVII29_T2Rug-1" value="微服务架构" style="swimlane;html=1;startSize=60;horizontal=1;containerType=tree;newEdgeStyle={&quot;edgeStyle&quot;:&quot;elbowEdgeStyle&quot;,&quot;startArrow&quot;:&quot;none&quot;,&quot;endArrow&quot;:&quot;none&quot;};fontSize=30;fontStyle=1" vertex="1" parent="1">
          <mxGeometry x="-67" y="90" width="960" height="710" as="geometry" />
        </mxCell>
        <mxCell id="qKksl_JtNVII29_T2Rug-2" style="edgeStyle=orthogonalEdgeStyle;rounded=0;orthogonalLoop=1;jettySize=auto;html=1;entryX=0.489;entryY=0.033;entryDx=0;entryDy=0;entryPerimeter=0;" edge="1" parent="qKksl_JtNVII29_T2Rug-1" source="qKksl_JtNVII29_T2Rug-3" target="qKksl_JtNVII29_T2Rug-8">
          <mxGeometry relative="1" as="geometry" />
        </mxCell>
        <mxCell id="qKksl_JtNVII29_T2Rug-3" value="内容管理系统" style="ellipse;whiteSpace=wrap;html=1;fontSize=20;" vertex="1" parent="qKksl_JtNVII29_T2Rug-1">
          <mxGeometry x="510" y="80" width="120" height="80" as="geometry" />
        </mxCell>
        <mxCell id="qKksl_JtNVII29_T2Rug-4" style="edgeStyle=orthogonalEdgeStyle;rounded=0;orthogonalLoop=1;jettySize=auto;html=1;entryX=0.113;entryY=-0.067;entryDx=0;entryDy=0;entryPerimeter=0;" edge="1" parent="qKksl_JtNVII29_T2Rug-1" source="qKksl_JtNVII29_T2Rug-5" target="qKksl_JtNVII29_T2Rug-8">
          <mxGeometry relative="1" as="geometry" />
        </mxCell>
        <mxCell id="qKksl_JtNVII29_T2Rug-5" value="电商系统" style="ellipse;whiteSpace=wrap;html=1;fontSize=20;" vertex="1" parent="qKksl_JtNVII29_T2Rug-1">
          <mxGeometry x="310" y="80" width="120" height="80" as="geometry" />
        </mxCell>
        <mxCell id="qKksl_JtNVII29_T2Rug-6" style="edgeStyle=orthogonalEdgeStyle;rounded=0;orthogonalLoop=1;jettySize=auto;html=1;entryX=0.887;entryY=0;entryDx=0;entryDy=0;entryPerimeter=0;" edge="1" parent="qKksl_JtNVII29_T2Rug-1" source="qKksl_JtNVII29_T2Rug-7" target="qKksl_JtNVII29_T2Rug-8">
          <mxGeometry relative="1" as="geometry" />
        </mxCell>
        <mxCell id="qKksl_JtNVII29_T2Rug-7" value="后台管理系统" style="ellipse;whiteSpace=wrap;html=1;fontSize=20;" vertex="1" parent="qKksl_JtNVII29_T2Rug-1">
          <mxGeometry x="720" y="80" width="120" height="80" as="geometry" />
        </mxCell>
        <mxCell id="qKksl_JtNVII29_T2Rug-8" value="服务网关" style="rounded=0;whiteSpace=wrap;html=1;fillColor=#d5e8d4;strokeColor=#82b366;" vertex="1" parent="qKksl_JtNVII29_T2Rug-1">
          <mxGeometry x="310" y="210" width="530" height="30" as="geometry" />
        </mxCell>
        <mxCell id="qKksl_JtNVII29_T2Rug-9" value="" style="shape=flexArrow;endArrow=classic;html=1;fontSize=20;width=34;endSize=6.67;fillColor=#6a00ff;strokeColor=#3700CC;" edge="1" parent="qKksl_JtNVII29_T2Rug-1">
          <mxGeometry width="50" height="50" relative="1" as="geometry">
            <mxPoint x="569.5" y="250" as="sourcePoint" />
            <mxPoint x="569.5" y="330" as="targetPoint" />
          </mxGeometry>
        </mxCell>
        <mxCell id="qKksl_JtNVII29_T2Rug-10" value="" style="rounded=0;whiteSpace=wrap;html=1;fontSize=20;fillColor=#1ba1e2;strokeColor=#006EAF;fontColor=#ffffff;" vertex="1" parent="qKksl_JtNVII29_T2Rug-1">
          <mxGeometry x="200" y="340" width="740" height="190" as="geometry" />
        </mxCell>
        <mxCell id="qKksl_JtNVII29_T2Rug-15" style="edgeStyle=orthogonalEdgeStyle;rounded=0;orthogonalLoop=1;jettySize=auto;html=1;entryX=0.5;entryY=0;entryDx=0;entryDy=0;fontSize=20;" edge="1" parent="qKksl_JtNVII29_T2Rug-1" target="qKksl_JtNVII29_T2Rug-27">
          <mxGeometry relative="1" as="geometry">
            <mxPoint x="678" y="550" as="sourcePoint" />
          </mxGeometry>
        </mxCell>
        <mxCell id="qKksl_JtNVII29_T2Rug-20" style="edgeStyle=orthogonalEdgeStyle;rounded=0;orthogonalLoop=1;jettySize=auto;html=1;fontSize=20;" edge="1" parent="qKksl_JtNVII29_T2Rug-1" target="qKksl_JtNVII29_T2Rug-26">
          <mxGeometry relative="1" as="geometry">
            <mxPoint x="479" y="550" as="sourcePoint" />
          </mxGeometry>
        </mxCell>
        <mxCell id="qKksl_JtNVII29_T2Rug-25" value="用户DB" style="shape=datastore;whiteSpace=wrap;html=1;fontSize=20;fillColor=#f8cecc;strokeColor=#b85450;" vertex="1" parent="qKksl_JtNVII29_T2Rug-1">
          <mxGeometry x="200" y="610" width="170" height="60" as="geometry" />
        </mxCell>
        <mxCell id="qKksl_JtNVII29_T2Rug-26" value="订单DB" style="shape=datastore;whiteSpace=wrap;html=1;fontSize=20;fillColor=#f8cecc;strokeColor=#b85450;" vertex="1" parent="qKksl_JtNVII29_T2Rug-1">
          <mxGeometry x="394" y="610" width="170" height="60" as="geometry" />
        </mxCell>
        <mxCell id="qKksl_JtNVII29_T2Rug-27" value="商品DB" style="shape=datastore;whiteSpace=wrap;html=1;fontSize=20;fillColor=#f8cecc;strokeColor=#b85450;" vertex="1" parent="qKksl_JtNVII29_T2Rug-1">
          <mxGeometry x="593" y="610" width="170" height="60" as="geometry" />
        </mxCell>
        <mxCell id="qKksl_JtNVII29_T2Rug-28" style="edgeStyle=orthogonalEdgeStyle;rounded=0;orthogonalLoop=1;jettySize=auto;html=1;entryX=0.5;entryY=0;entryDx=0;entryDy=0;fontSize=20;" edge="1" parent="qKksl_JtNVII29_T2Rug-1" target="qKksl_JtNVII29_T2Rug-25">
          <mxGeometry relative="1" as="geometry">
            <mxPoint x="285" y="550" as="sourcePoint" />
          </mxGeometry>
        </mxCell>
        <mxCell id="qKksl_JtNVII29_T2Rug-29" value="&lt;font style=&quot;font-size: 20px;&quot;&gt;展示层/业务功能&lt;/font&gt;" style="rounded=0;whiteSpace=wrap;html=1;fontSize=20;fontStyle=1;strokeColor=none;" vertex="1" parent="qKksl_JtNVII29_T2Rug-1">
          <mxGeometry x="20" y="180" width="160" height="60" as="geometry" />
        </mxCell>
        <mxCell id="qKksl_JtNVII29_T2Rug-30" value="&lt;font style=&quot;font-size: 20px&quot;&gt;服务层&lt;/font&gt;" style="rounded=0;whiteSpace=wrap;html=1;fontSize=20;fontStyle=1;strokeColor=none;" vertex="1" parent="qKksl_JtNVII29_T2Rug-1">
          <mxGeometry x="20" y="440" width="160" height="60" as="geometry" />
        </mxCell>
        <mxCell id="qKksl_JtNVII29_T2Rug-12" value="用户管理服务" style="rounded=0;whiteSpace=wrap;html=1;fillColor=#fff2cc;strokeColor=#d6b656;fontSize=20;" vertex="1" parent="qKksl_JtNVII29_T2Rug-1">
          <mxGeometry x="230" y="390" width="140" height="30" as="geometry" />
        </mxCell>
        <mxCell id="qKksl_JtNVII29_T2Rug-42" value="用户鉴权服务" style="rounded=0;whiteSpace=wrap;html=1;fillColor=#fff2cc;strokeColor=#d6b656;fontSize=20;" vertex="1" parent="qKksl_JtNVII29_T2Rug-1">
          <mxGeometry x="415" y="390" width="140" height="30" as="geometry" />
        </mxCell>
        <mxCell id="qKksl_JtNVII29_T2Rug-43" value="商品服务" style="rounded=0;whiteSpace=wrap;html=1;fillColor=#fff2cc;strokeColor=#d6b656;fontSize=20;" vertex="1" parent="qKksl_JtNVII29_T2Rug-1">
          <mxGeometry x="590" y="390" width="140" height="30" as="geometry" />
        </mxCell>
        <mxCell id="qKksl_JtNVII29_T2Rug-44" value="订单服务" style="rounded=0;whiteSpace=wrap;html=1;fillColor=#fff2cc;strokeColor=#d6b656;fontSize=20;" vertex="1" parent="qKksl_JtNVII29_T2Rug-1">
          <mxGeometry x="780" y="390" width="140" height="30" as="geometry" />
        </mxCell>
        <mxCell id="qKksl_JtNVII29_T2Rug-45" value="内容管理服务" style="rounded=0;whiteSpace=wrap;html=1;fillColor=#fff2cc;strokeColor=#d6b656;fontSize=20;" vertex="1" parent="qKksl_JtNVII29_T2Rug-1">
          <mxGeometry x="230" y="440" width="140" height="30" as="geometry" />
        </mxCell>
        <mxCell id="qKksl_JtNVII29_T2Rug-46" value="客户管理服务" style="rounded=0;whiteSpace=wrap;html=1;fillColor=#fff2cc;strokeColor=#d6b656;fontSize=20;" vertex="1" parent="qKksl_JtNVII29_T2Rug-1">
          <mxGeometry x="415" y="440" width="140" height="30" as="geometry" />
        </mxCell>
        <mxCell id="qKksl_JtNVII29_T2Rug-47" value="物料服务" style="rounded=0;whiteSpace=wrap;html=1;fillColor=#fff2cc;strokeColor=#d6b656;fontSize=20;" vertex="1" parent="qKksl_JtNVII29_T2Rug-1">
          <mxGeometry x="590" y="440" width="140" height="30" as="geometry" />
        </mxCell>
        <mxCell id="qKksl_JtNVII29_T2Rug-48" value="客服服务" style="rounded=0;whiteSpace=wrap;html=1;fillColor=#fff2cc;strokeColor=#d6b656;fontSize=20;" vertex="1" parent="qKksl_JtNVII29_T2Rug-1">
          <mxGeometry x="780" y="440" width="140" height="30" as="geometry" />
        </mxCell>
        <mxCell id="qKksl_JtNVII29_T2Rug-57" style="edgeStyle=orthogonalEdgeStyle;rounded=0;orthogonalLoop=1;jettySize=auto;html=1;entryX=0.5;entryY=0;entryDx=0;entryDy=0;fontSize=20;" edge="1" parent="qKksl_JtNVII29_T2Rug-1" target="qKksl_JtNVII29_T2Rug-58">
          <mxGeometry relative="1" as="geometry">
            <mxPoint x="866" y="550" as="sourcePoint" />
          </mxGeometry>
        </mxCell>
        <mxCell id="qKksl_JtNVII29_T2Rug-58" value="内容管理DB" style="shape=datastore;whiteSpace=wrap;html=1;fontSize=20;fillColor=#f8cecc;strokeColor=#b85450;" vertex="1" parent="qKksl_JtNVII29_T2Rug-1">
          <mxGeometry x="781" y="610" width="170" height="60" as="geometry" />
        </mxCell>
      </root>
    </mxGraphModel>
  </diagram>
</mxfile>
